<?xml version="1.0"?>
<svg fill="none" width="128" height="128" viewBox="0 0 128 128" xmlns="http://www.w3.org/2000/svg">
  <path fill="#000000" d="M113.424 63.6444V0H112.002L56.8911 22.7556L30.58 40.8889L14.58 61.5111V99.9111L36.6245 128H67.9134L100.98 98.4889L103.469 80.3556L113.424 63.6444Z"/>
  <path fill="#F0F0F0" d="M109.513 64.3556V4.26667L57.6023 34.8444L33.0689 41.9556L50.8467 43.7333V44.8L18.4911 60.4444V99.9111L32.0023 107.733L35.2023 120.889L33.0689 108.444L38.7578 109.511L38.0467 124.444L51.9134 113.067H70.7578L68.98 123.378L71.8245 113.067L79.6467 100.622L97.0689 98.4889L80.3578 99.2L96.3578 74.6667L109.513 64.3556Z"/>
  <path fill="#000000" d="M80.7133 52.6222L109.513 4.26667V24.5333L73.2467 92.8L79.2911 100.267L55.4689 113.067H51.9133L80.7133 52.6222Z"/>
  <path fill="#000000" d="M71.8245 45.8667L57.6022 34.8444L53.3356 41.9556L49.78 57.2444L52.98 76.0889L35.9134 68.9778L33.0689 108.444L38.7578 109.511L71.8245 45.8667Z"/>
  <path fill="url(#flake1)" d="M35.9133 68.9778L48.3578 57.9556L51.7356 75.5556L35.9133 68.9778Z"/>
  <path fill="url(#flake2)" d="M109.513 63.2889V24.5333L107.622 28.0889L99.2023 69.3333L109.513 63.2889Z"/>
  <path fill="url(#flake3)" d="M80.7133 52.6222L109.513 4.26667L57.6022 34.8444L80.7133 52.6222Z"/>
  <path fill="url(#flake4)" d="M48.3578 57.9556L50.8467 44.8L18.4911 60.4444L35.9134 68.9778L48.3578 57.9556Z"/>
  <path fill="url(#flake5)" d="M34.4911 68.2667L18.4911 60.4444V97.4222L31.6467 103.467L34.4911 68.2667Z"/>
  <path fill="url(#flake6)" d="M73.2467 92.8L107.622 28.0889L96.0023 72.5333L78.9356 98.1333L73.2467 92.8Z"/>
  <path fill="url(#flake7)" d="M80.7134 52.6222L71.8245 45.8667L38.7578 109.511L38.0467 124.444L51.9134 113.067L80.7134 52.6222Z"/>
  <defs>
    <linearGradient id="flake1" x1="48.3578" y1="57.9556" x2="51.7356" y2="75.5556" gradientUnits="userSpaceOnUse">
      <stop offset="0.365"/>
      <stop offset="0.76" stop-color="#F0F0F0"/>
    </linearGradient>
    <linearGradient id="flake2" x1="107.558" y1="28.2667" x2="99.2023" y2="69.3333" gradientUnits="userSpaceOnUse">
      <stop offset="0.665"/>
      <stop offset="1" stop-color="#F0F0F0"/>
    </linearGradient>
    <linearGradient id="flake3" x1="57.6022" y1="34.8444" x2="80.7133" y2="52.8" gradientUnits="userSpaceOnUse">
      <stop stop-color="#989898"/>
      <stop offset="0.435" stop-color="#F0F0F0"/>
    </linearGradient>
    <linearGradient id="flake4" x1="50.8467" y1="44.8" x2="45.5134" y2="72.8889" gradientUnits="userSpaceOnUse">
      <stop offset="0.065"/>
      <stop offset="0.495" stop-color="#F0F0F0"/>
    </linearGradient>
    <linearGradient id="flake5" x1="18.4911" y1="60.4444" x2="51.9134" y2="113.067" gradientUnits="userSpaceOnUse">
      <stop offset="0.371795"/>
      <stop offset="0.630254" stop-color="#F0F0F0"/>
    </linearGradient>
    <linearGradient id="flake6" x1="51.7356" y1="75.5556" x2="78.9356" y2="98.1333" gradientUnits="userSpaceOnUse">
      <stop offset="0.6"/>
      <stop offset="0.97" stop-color="#F0F0F0"/>
    </linearGradient>
    <linearGradient id="flake7" x1="71.8245" y1="45.8667" x2="97.0689" y2="98.4889" gradientUnits="userSpaceOnUse">
      <stop offset="0.247764"/>
      <stop offset="0.517981" stop-color="#F0F0F0"/>
    </linearGradient>
  </defs>
</svg>
